<svg width="13" height="12" viewBox="0 0 13 12" xmlns="http://www.w3.org/2000/svg">
<path fillRule="evenodd" clipRule="evenodd" d="M11.6066 0.292893C11.2161 -0.0976311 10.5829 -0.0976311 10.1924 0.292893L6.08577 4.39951L1.97917 0.292906C1.58865 -0.0976187 0.955483 -0.0976187 0.564959 0.292906C0.174435 0.68343 0.174435 1.31659 0.564959 1.70712L4.67156 5.81372L0.292893 10.1924C-0.0976311 10.5829 -0.0976311 11.2161 0.292893 11.6066C0.683417 11.9971 1.31658 11.9971 1.70711 11.6066L6.08577 7.22793L10.4645 11.6066C10.855 11.9971 11.4881 11.9971 11.8787 11.6066C12.2692 11.2161 12.2692 10.5829 11.8787 10.1924L7.49999 5.81372L11.6066 1.70711C11.9971 1.31658 11.9971 0.683417 11.6066 0.292893Z"/>
</svg>
